<svg width="40" height="40" viewBox="0 0 40 40" fill="none" xmlns="http://www.w3.org/2000/svg">
<path d="M10.4679 10.5337C7.88098 12.9337 6.3833 16.267 6.3833 20.0004C6.3833 23.067 7.47252 25.867 9.10636 28.1337C9.10636 28.1337 9.10636 28.1337 9.24251 28.1337C9.24251 28.1337 9.24251 28.1337 9.24251 28.0004C8.15329 24.9337 13.4632 17.3337 16.3225 14.1337C11.6933 9.46703 10.4679 10.5337 10.4679 10.5337Z" fill="white"/>
<path d="M29.529 10.534C31.9797 12.934 33.6136 16.2674 33.6136 20.0007C33.6136 23.0674 32.5243 25.8674 30.8905 28.134C30.8905 28.134 30.8905 28.134 30.7543 28.134C30.7543 28.134 30.7543 28.134 30.7543 28.0007C31.8436 24.8007 26.5336 17.2007 23.8105 14.0007C28.3036 9.46736 29.529 10.534 29.529 10.534Z" fill="white"/>
<path d="M19.9989 6.66699C22.7219 6.66699 25.0365 7.46699 27.0788 8.66699C24.3558 8.13366 20.4073 10.4003 19.9989 10.667C18.9097 10.0003 15.2335 8.13366 12.9189 8.66699C12.9189 8.66699 12.9189 8.66699 12.9189 8.53366C14.9612 7.46699 17.2758 6.66699 19.9989 6.66699Z" fill="white"/>
<path d="M19.9984 17.334C24.083 20.4007 31.0268 27.8673 28.9845 30.0007C26.5338 32.134 23.4022 33.334 19.9984 33.334C16.5946 33.334 13.4631 32.134 11.0123 30.0007C8.97005 27.8673 15.9138 20.4007 19.9984 17.334Z" fill="white"/>
</svg>
